<svg width="34" height="34" viewBox="0 0 34 34" fill="none" xmlns="http://www.w3.org/2000/svg">
<g id="Chart">
<path id="Chart_2" fill-rule="evenodd" clip-rule="evenodd" d="M8.88333 0H24.4483C30.1167 0 33.3167 3.215 33.3333 8.88333V24.45C33.3333 30.1167 30.1167 33.3333 24.4483 33.3333H8.88333C3.215 33.3333 0 30.1167 0 24.45V8.88333C0 3.215 3.215 0 8.88333 0ZM16.7483 26.4333C17.4666 26.4333 18.0649 25.9 18.1316 25.1833V8.19996C18.1983 7.68329 17.9499 7.16496 17.4999 6.88329C17.0316 6.59996 16.4649 6.59996 16.0166 6.88329C15.5649 7.16496 15.3166 7.68329 15.3649 8.19996V25.1833C15.4499 25.9 16.0483 26.4333 16.7483 26.4333ZM24.4166 26.4333C25.1166 26.4333 25.7149 25.9 25.7999 25.1833V19.7167C25.8483 19.1817 25.5999 18.6833 25.1483 18.4C24.6999 18.1167 24.1333 18.1167 23.6666 18.4C23.2149 18.6833 22.9666 19.1817 23.0333 19.7167V25.1833C23.0999 25.9 23.6983 26.4333 24.4166 26.4333ZM10.365 25.1833C10.2983 25.9 9.69997 26.4333 8.98164 26.4333C8.26497 26.4333 7.66497 25.9 7.59997 25.1833V13.6666C7.54997 13.1483 7.79831 12.6333 8.24997 12.35C8.69831 12.0666 9.26664 12.0666 9.71664 12.35C10.165 12.6333 10.4166 13.1483 10.365 13.6666V25.1833Z" fill="white"/>
</g>
</svg>
