<svg width="34" height="34" viewBox="0 0 34 34" fill="none" xmlns="http://www.w3.org/2000/svg">
<g id="Graph">
<path id="Graph_2" fill-rule="evenodd" clip-rule="evenodd" d="M17.2107 0.349438C17.4769 0.110537 17.829 -0.0146886 18.1893 0.00137483C25.8074 0.229425 32.1741 5.75967 33.3279 13.151C33.3353 13.1952 33.3353 13.2402 33.3279 13.2843C33.3528 13.634 33.2346 13.9791 32.9995 14.2431C32.7644 14.5071 32.4318 14.6683 32.0752 14.6911L19.2761 15.5352C18.8528 15.5727 18.433 15.4334 18.1199 15.1515C17.8067 14.8697 17.6292 14.4713 17.6309 14.0543L16.7706 1.48219V1.27488C16.7862 0.921293 16.9446 0.588339 17.2107 0.349438ZM16.3328 18.8226L27.4264 18.1118L27.5018 18.1414C27.9782 18.1492 28.4319 18.3424 28.7631 18.6784C29.0943 19.0145 29.2758 19.4659 29.2677 19.9332C28.8306 26.3034 24.1603 31.6259 17.8046 32.9971C11.449 34.3683 4.93362 31.4591 1.81297 25.8565C0.895362 24.2429 0.315504 22.4657 0.107423 20.6292C0.0267189 20.085 -0.008616 19.5353 0.00176998 18.9855C0.022804 12.2118 4.84546 6.36514 11.5934 4.93253C12.4103 4.77963 13.2294 5.18749 13.5858 5.92468C13.6745 6.05845 13.7455 6.20275 13.7971 6.35412C13.9236 8.30669 14.0548 10.2408 14.1854 12.1667C14.2886 13.6878 14.3915 15.2038 14.4914 16.7199C14.4862 17.077 14.5423 17.4324 14.6574 17.7712C14.9282 18.4379 15.6023 18.8609 16.3328 18.8226Z" fill="white"/>
</g>
</svg>
