<svg width="225" height="184" viewBox="0 0 225 184" fill="none" xmlns="http://www.w3.org/2000/svg">
<g id="Group 1966">
<circle id="Ellipse 17" cx="2.5" cy="2.5" r="2.5" fill="#1777E5"/>
<circle id="Ellipse 65" cx="2.5" cy="144.92" r="2.5" fill="#1777E5"/>
<circle id="Ellipse 41" cx="2.5" cy="73.7101" r="2.5" fill="#1777E5"/>
<circle id="Ellipse 29" cx="2.5" cy="38.105" r="2.5" fill="#1777E5"/>
<circle id="Ellipse 67" cx="2.5" cy="180.525" r="2.5" fill="#1777E5"/>
<circle id="Ellipse 42" cx="2.5" cy="109.315" r="2.5" fill="#1777E5"/>
<circle id="Ellipse 23" cx="222.13" cy="2.5" r="2.5" fill="#1777E5"/>
<circle id="Ellipse 69" cx="222.13" cy="144.92" r="2.5" fill="#1777E5"/>
<circle id="Ellipse 43" cx="222.13" cy="73.7101" r="2.5" fill="#1777E5"/>
<circle id="Ellipse 30" cx="222.13" cy="38.105" r="2.5" fill="#1777E5"/>
<circle id="Ellipse 71" cx="222.13" cy="180.525" r="2.5" fill="#1777E5"/>
<circle id="Ellipse 44" cx="222.13" cy="109.315" r="2.5" fill="#1777E5"/>
<circle id="Ellipse 20" cx="112.315" cy="2.5" r="2.5" fill="#1777E5"/>
<circle id="Ellipse 73" cx="112.315" cy="144.92" r="2.5" fill="#1777E5"/>
<circle id="Ellipse 45" cx="112.315" cy="73.7101" r="2.5" fill="#1777E5"/>
<circle id="Ellipse 31" cx="112.315" cy="38.105" r="2.5" fill="#1777E5"/>
<circle id="Ellipse 75" cx="112.315" cy="180.525" r="2.5" fill="#1777E5"/>
<circle id="Ellipse 46" cx="112.315" cy="109.315" r="2.5" fill="#1777E5"/>
<circle id="Ellipse 18" cx="39.105" cy="2.5" r="2.5" fill="#1777E5"/>
<circle id="Ellipse 81" cx="39.105" cy="144.92" r="2.5" fill="#1777E5"/>
<circle id="Ellipse 49" cx="39.105" cy="73.7101" r="2.5" fill="#1777E5"/>
<circle id="Ellipse 33" cx="39.105" cy="38.105" r="2.5" fill="#1777E5"/>
<circle id="Ellipse 83" cx="39.105" cy="180.525" r="2.5" fill="#1777E5"/>
<circle id="Ellipse 50" cx="39.105" cy="109.315" r="2.5" fill="#1777E5"/>
<circle id="Ellipse 21" cx="148.92" cy="2.5" r="2.5" fill="#1777E5"/>
<circle id="Ellipse 89" cx="148.92" cy="144.92" r="2.5" fill="#1777E5"/>
<circle id="Ellipse 53" cx="148.92" cy="73.7101" r="2.5" fill="#1777E5"/>
<circle id="Ellipse 35" cx="148.92" cy="38.105" r="2.5" fill="#1777E5"/>
<circle id="Ellipse 91" cx="148.92" cy="180.525" r="2.5" fill="#1777E5"/>
<circle id="Ellipse 54" cx="148.92" cy="109.315" r="2.5" fill="#1777E5"/>
<circle id="Ellipse 19" cx="75.71" cy="2.5" r="2.5" fill="#1777E5"/>
<circle id="Ellipse 97" cx="75.71" cy="144.92" r="2.5" fill="#1777E5"/>
<circle id="Ellipse 57" cx="75.71" cy="73.7101" r="2.5" fill="#1777E5"/>
<circle id="Ellipse 37" cx="75.71" cy="38.105" r="2.5" fill="#1777E5"/>
<circle id="Ellipse 99" cx="75.71" cy="180.525" r="2.5" fill="#1777E5"/>
<circle id="Ellipse 58" cx="75.71" cy="109.315" r="2.5" fill="#1777E5"/>
<circle id="Ellipse 22" cx="185.525" cy="2.5" r="2.5" fill="#1777E5"/>
<circle id="Ellipse 105" cx="185.525" cy="144.92" r="2.5" fill="#1777E5"/>
<circle id="Ellipse 61" cx="185.525" cy="73.7101" r="2.5" fill="#1777E5"/>
<circle id="Ellipse 39" cx="185.525" cy="38.105" r="2.5" fill="#1777E5"/>
<circle id="Ellipse 107" cx="185.525" cy="180.525" r="2.5" fill="#1777E5"/>
<circle id="Ellipse 62" cx="185.525" cy="109.315" r="2.5" fill="#1777E5"/>
</g>
</svg>
