<svg width="27" height="26" viewBox="0 0 27 26" fill="none" xmlns="http://www.w3.org/2000/svg">
<g id="Heart">
<path id="Heart_2" fill-rule="evenodd" clip-rule="evenodd" d="M18.4667 0.000212896C19.308 0.000212896 20.148 0.11888 20.9467 0.38688C25.868 1.98688 27.6414 7.38688 26.16 12.1069C25.32 14.5189 23.9467 16.7202 22.148 18.5189C19.5734 21.0122 16.748 23.2255 13.7067 25.1322L13.3734 25.3335L13.0267 25.1189C9.97469 23.2255 7.13335 21.0122 4.53469 18.5055C2.74802 16.7069 1.37336 14.5189 0.520022 12.1069C-0.986645 7.38688 0.786689 1.98688 5.76136 0.35888C6.14802 0.225546 6.54669 0.132213 6.94669 0.0802129H7.10669C7.48136 0.0255462 7.85336 0.000212896 8.22669 0.000212896H8.37335C9.21336 0.0255462 10.0267 0.172213 10.8147 0.440213H10.8934C10.9467 0.465546 10.9867 0.493546 11.0134 0.51888C11.308 0.613546 11.5867 0.720213 11.8534 0.86688L12.36 1.09355C12.4825 1.15884 12.6199 1.25861 12.7386 1.34484C12.8139 1.39947 12.8816 1.44867 12.9334 1.48021C12.9551 1.49305 12.9772 1.50596 12.9995 1.51898C13.1138 1.58571 13.2329 1.65523 13.3334 1.73221C14.8147 0.600213 16.6134 -0.0131204 18.4667 0.000212896ZM22.0133 9.60021C22.5599 9.58555 23.0266 9.14688 23.0666 8.58554V8.42688C23.1066 6.55888 21.9746 4.86688 20.2533 4.21354C19.7066 4.02554 19.1066 4.32021 18.9066 4.88021C18.7199 5.44021 19.0133 6.05354 19.5733 6.25221C20.4279 6.57221 20.9999 7.41355 20.9999 8.34554V8.38688C20.9746 8.69221 21.0666 8.98688 21.2533 9.21354C21.4399 9.44021 21.7199 9.57221 22.0133 9.60021Z" fill="white"/>
</g>
</svg>
