<?xml version="1.0" encoding="UTF-8"?>
<svg id="Layer_2" xmlns="http://www.w3.org/2000/svg" xmlns:xlink="http://www.w3.org/1999/xlink" viewBox="0 0 34.12 48">
  <defs>
    <style>
      .cls-1 {
        fill: url(#linear-gradient-2);
      }

      .cls-2 {
        fill: #1777e5;
      }

      .cls-3 {
        fill: url(#linear-gradient);
      }
    </style>
    <linearGradient id="linear-gradient" x1="3.73" y1="33.62" x2="24.33" y2="33.62" gradientUnits="userSpaceOnUse">
      <stop offset="0" stop-color="#1777e5"/>
      <stop offset="1" stop-color="#94c6ff"/>
    </linearGradient>
    <linearGradient id="linear-gradient-2" x1="9.63" y1="14.34" x2="30.03" y2="14.34" gradientUnits="userSpaceOnUse">
      <stop offset="0" stop-color="#94c6ff"/>
      <stop offset="1" stop-color="#1777e5"/>
    </linearGradient>
  </defs>
  <g id="Layer_1-2" data-name="Layer_1">
    <g>
      <path class="cls-2" d="M28.11,10.98l-1.65,1.64c3.26,2.7,5.34,6.79,5.34,11.36,0,8.14-6.6,14.74-14.74,14.74-.36,0-.72-.01-1.08-.04l-1.91,2.1c.97.17,1.97.26,2.98.26,9.41,0,17.06-7.66,17.06-17.06,0-5.2-2.34-9.86-6.02-13ZM2.32,23.98c0-8.14,6.6-14.74,14.74-14.74.21,0,.42,0,.63.02l1.92-2.15c-.83-.12-1.69-.19-2.55-.19C7.65,6.91,0,14.57,0,23.98c0,5.03,2.19,9.55,5.65,12.67l1.54-1.73c-2.99-2.7-4.87-6.6-4.87-10.95Z"/>
      <path class="cls-3" d="M3.88,48s-.35-3.11,0-5.24,2.34-3.61,3.11-4.42,10.91-10.86,12.25-12.03,3.23-2.27,3.6-7.07c1.77,2.3,1.97,5.83.6,8.83-.8,1.43-19.55,19.92-19.55,19.92Z"/>
      <path class="cls-1" d="M11.41,28.69s-.19-5.07,3.49-7.75c2.29-2.1,13.34-12.7,14.08-13.73s1.13-1.49,1.03-7.2c0,0-15.26,14.18-18.61,17.98s-1.15,9.25,0,10.71Z"/>
      <line class="cls-2" x1="28.11" y1="10.98" x2="26.46" y2="12.62"/>
      <line class="cls-2" x1="19.61" y1="7.1" x2="17.7" y2="9.25"/>
      <line class="cls-2" x1="15.99" y1="38.68" x2="14.08" y2="40.78"/>
      <line class="cls-2" x1="7.19" y1="34.92" x2="5.65" y2="36.65"/>
    </g>
  </g>
</svg>